<svg xmlns="http://www.w3.org/2000/svg" xmlns:xlink="http://www.w3.org/1999/xlink" width="360" height="154" class="wd-graphic wd-graphic-empty-state-cloud" focusable="false" role="presentation" viewBox="0 0 360 154"><defs><circle id="wd-graphic-empty-state-cloud-path-1" cx="2" cy="2" r="2"></circle><circle id="wd-graphic-empty-state-cloud-path-3" cx="1.5" cy="1.5" r="1.5"></circle><circle id="wd-graphic-empty-state-cloud-path-5" cx="1.5" cy="1.5" r="1.5"></circle><circle id="wd-graphic-empty-state-cloud-path-7" cx="1" cy="1" r="1"></circle><circle id="wd-graphic-empty-state-cloud-path-9" cx="1" cy="1" r="1"></circle><circle id="wd-graphic-empty-state-cloud-path-11" cx="1" cy="1" r="1"></circle><circle id="wd-graphic-empty-state-cloud-path-13" cx="1" cy="1" r="1"></circle><circle id="wd-graphic-empty-state-cloud-path-15" cx="1" cy="1" r="1"></circle><path id="wd-graphic-empty-state-cloud-path-17" d="M3 0c.342 0 .496 1.102 1.246 1.852S6 2.659 6 3c0 .34-1.01.494-1.76 1.244S3.433 6 3 6c-.434 0-.512-1.057-1.262-1.807S0 3.373 0 3c0-.374.905-.385 1.69-1.17C2.472 1.047 2.657 0 3 0z"></path><path id="wd-graphic-empty-state-cloud-path-19" d="M3 0c.342 0 .496 1.102 1.246 1.852S6 2.659 6 3c0 .34-1.01.494-1.76 1.244S3.433 6 3 6c-.434 0-.512-1.057-1.262-1.807S0 3.373 0 3c0-.374.905-.385 1.69-1.17C2.472 1.047 2.657 0 3 0z"></path><path id="wd-graphic-empty-state-cloud-path-21" d="M3 0c.342 0 .496 1.102 1.246 1.852S6 2.659 6 3c0 .34-1.01.494-1.76 1.244S3.433 6 3 6c-.434 0-.512-1.057-1.262-1.807S0 3.373 0 3c0-.374.905-.385 1.69-1.17C2.472 1.047 2.657 0 3 0z"></path><path id="wd-graphic-empty-state-cloud-path-23" d="M3 0c.342 0 .496 1.102 1.246 1.852S6 2.659 6 3c0 .34-1.01.494-1.76 1.244S3.433 6 3 6c-.434 0-.512-1.057-1.262-1.807S0 3.373 0 3c0-.374.905-.385 1.69-1.17C2.472 1.047 2.657 0 3 0z"></path><path id="wd-graphic-empty-state-cloud-path-25" d="M3 0c.342 0 .496 1.102 1.246 1.852S6 2.659 6 3c0 .34-1.01.494-1.76 1.244S3.433 6 3 6c-.434 0-.512-1.057-1.262-1.807S0 3.373 0 3c0-.374.905-.385 1.69-1.17C2.472 1.047 2.657 0 3 0z"></path><path id="wd-graphic-empty-state-cloud-path-27" d="M5 0c.57 0 .827 1.836 2.077 3.086C8.327 4.336 10 4.432 10 5c0 .568-1.684.823-2.934 2.073C5.816 8.323 5.723 10 5 10c-.723 0-.854-1.762-2.104-3.012S0 5.623 0 5s1.508-.642 2.815-1.949S4.43 0 5 0z"></path><path id="wd-graphic-empty-state-cloud-path-29" d="M38.661 6.416a7.502 7.502 0 0 1 12.397-1.952c-1.17.363-2.257.923-3.17 1.62a1 1 0 1 0 1.224 1.583c1.073-.841 2.268-1.385 3.628-1.583.053.001.107-.002.16-.01a8.004 8.004 0 0 1 8.901 6.146 1 1 0 0 0 .996.78H79a1 1 0 1 0 0-2H63.542C62.267 6.943 58.478 4 54 4c-.24 0-.489.01-.734.028A9.49 9.49 0 0 0 45.5 0c-3.64 0-6.8 2.047-8.395 5.05A8.006 8.006 0 0 0 30.252 11H12a1 1 0 1 0 0 2h19.07a1 1 0 0 0 .99-.858 6.002 6.002 0 0 1 5.725-5.138 1 1 0 0 0 .876-.588zM82 12a1 1 0 0 1 1-1h4a1 1 0 1 1 0 2h-4a1 1 0 0 1-1-1zM1 11a1 1 0 1 0 0 2h6a1 1 0 1 0 0-2H1z"></path><path id="wd-graphic-empty-state-cloud-path-31" d="M51.5 2a8.5 8.5 0 0 0-8.5 8.5 1 1 0 1 1-2 0c0-.768.082-1.517.239-2.238A6.003 6.003 0 0 0 37 14a1 1 0 0 1-1 1H20a1 1 0 1 1 0-2h15.062a8.004 8.004 0 0 1 6.918-6.936A10.501 10.501 0 0 1 51.5 0c4.94 0 9.083 3.411 10.202 8.007A7.002 7.002 0 0 1 68.71 13H95a1 1 0 1 1 0 2H67.917a1 1 0 0 1-.986-.835 5.002 5.002 0 0 0-5.85-4.08 1 1 0 0 1-1.173-.838A8.503 8.503 0 0 0 51.5 2zM0 14a1 1 0 0 1 1-1h11a1 1 0 1 1 0 2H1a1 1 0 0 1-1-1zm12-7a1 1 0 1 0 0 2h7a1 1 0 1 0 0-2h-7z"></path><path id="wd-graphic-empty-state-cloud-path-33" d="M40.5 2c-8.403 0-15.245 6.687-15.493 15.03a1 1 0 0 1-1 .97H1a1 1 0 1 1 0-2h22.063C23.825 7.037 31.34 0 40.5 0a17.466 17.466 0 0 1 13.471 6.329C54.946 6.113 55.961 6 57 6c6.343 0 11.699 4.217 13.42 10H88a1 1 0 1 1 0 2H69.672a.993.993 0 0 1-.64-.216.999.999 0 0 1-.353-.554C67.429 11.938 62.673 8 57 8c-3.225 0-6.15 1.27-8.308 3.34a1 1 0 0 1-1.384-1.442 14.013 14.013 0 0 1 4.565-2.93A15.456 15.456 0 0 0 40.5 2zM92 16a1 1 0 1 0 0 2h5a1 1 0 1 0 0-2h-5z"></path><path id="wd-graphic-empty-state-cloud-path-35" d="M33.59 6.88a17.478 17.478 0 0 0-2.344 4.123A12.712 12.712 0 0 0 31 11c-6.29 0-11.45 4.84-11.959 11H1a1 1 0 1 0 0 2h19a1 1 0 0 0 1-1c0-5.383 4.253-9.772 9.582-9.991A17.526 17.526 0 0 0 30 17.5a1 1 0 1 0 2 0c0-3.489 1.153-6.709 3.098-9.3A15.477 15.477 0 0 1 48.13 2.014c7.477.298 13.592 5.894 14.693 13.137l.004.026a1 1 0 0 0 1.068.848 7.5 7.5 0 0 1 8.092 7.034 1 1 0 0 0 .999.942H95a1 1 0 1 0 0-2H73.882c-.712-4.486-4.563-7.927-9.232-7.999C63.028 6.012 55.967 0 47.5 0c-5.672 0-10.712 2.698-13.91 6.88zM100 22a1 1 0 1 0 0 2h9a1 1 0 0 0 0-2h-9z"></path></defs><g fill="none" fill-rule="evenodd" class="wd-icon-container"><use fill="#E6EBEE" transform="translate(203 7)" xlink:href="#wd-graphic-empty-state-cloud-path-1"></use><use fill="#E6EBEE" transform="translate(156 127)" xlink:href="#wd-graphic-empty-state-cloud-path-3"></use><use fill="#E6EBEE" transform="translate(145 25)" xlink:href="#wd-graphic-empty-state-cloud-path-5"></use><use fill="#E6EBEE" transform="translate(243 44)" xlink:href="#wd-graphic-empty-state-cloud-path-7"></use><use fill="#E6EBEE" transform="translate(312 56)" xlink:href="#wd-graphic-empty-state-cloud-path-9"></use><use fill="#E6EBEE" transform="translate(78 99)" xlink:href="#wd-graphic-empty-state-cloud-path-11"></use><use fill="#E6EBEE" transform="translate(225 135)" xlink:href="#wd-graphic-empty-state-cloud-path-13"></use><use fill="#E6EBEE" transform="translate(172 22)" xlink:href="#wd-graphic-empty-state-cloud-path-15"></use><use fill="#FFDB63" transform="translate(99 120)" xlink:href="#wd-graphic-empty-state-cloud-path-17"></use><use fill="#FFDB63" transform="translate(280 92)" xlink:href="#wd-graphic-empty-state-cloud-path-19"></use><use fill="#FFDB63" transform="translate(204 133)" xlink:href="#wd-graphic-empty-state-cloud-path-21"></use><use fill="#FFDB63" transform="translate(161 1)" xlink:href="#wd-graphic-empty-state-cloud-path-23"></use><use fill="#FFDB63" transform="translate(93 29)" xlink:href="#wd-graphic-empty-state-cloud-path-25"></use><use fill="#FFDB63" transform="translate(224 24)" xlink:href="#wd-graphic-empty-state-cloud-path-27"></use><use fill="#E6EBEE" fill-rule="nonzero" transform="translate(219 98)" xlink:href="#wd-graphic-empty-state-cloud-path-29"></use><use fill="#E6EBEE" fill-rule="nonzero" transform="translate(70 33)" xlink:href="#wd-graphic-empty-state-cloud-path-31"></use><g fill-rule="nonzero" transform="translate(224 47)"><path fill="#000" fill-opacity=".04" d="M54 7C48 1 43.5-.276 32 3.099c7 0 13.5.901 15 7.901 4-4.5 5.5-3 7-4z"></path><use fill="#CAD3D9" xlink:href="#wd-graphic-empty-state-cloud-path-33"></use></g><g fill="#D8D8D8" fill-rule="nonzero" transform="translate(18 70)"><path fill="#000" fill-opacity=".04" d="M66 16C58.552-.076 50-1 42 2.5 51 3.601 58 11 61 18c.5-1 3.5-2.5 5-2z"></path><use fill="#CAD3D9" xlink:href="#wd-graphic-empty-state-cloud-path-35"></use></g><path fill="#FFF" d="M232.977 121.995V122H132.651C117.38 122 105 110.077 105 95.37c0-12.462 8.888-22.925 20.893-25.83a34.231 34.231 0 0 1-.094-2.526C125.8 47.676 142.07 32 162.137 32c13.872 0 25.929 7.49 32.052 18.502a32.028 32.028 0 0 1 11.137-1.981c17.163 0 31.077 13.413 31.077 29.958l-.003.45c10.568 1.785 18.6 10.675 18.6 21.372 0 11.827-9.816 21.443-22.023 21.694z"></path><path fill="#A6D2FF" d="M216.184 86.682a22.086 22.086 0 0 1 10.118-2.431c11.97 0 21.672 9.425 21.672 21.052 0 6.238-2.974 10.697-9.23 14.697 8.336-3.093 16.256-9.934 16.256-19.118 0-11.155-8.735-20.329-19.923-21.419.05-.682.077-1.372.077-2.067 0-15.683-13.088-28.396-29.232-28.396-4.639 0-9.026 1.05-12.922 2.918l.368.475c1.932-.398 3.948-.455 6.002-.455 15.866 0 28.728 12.494 28.728 27.906a22.316 22.316 0 0 0-11.914 6.838z"></path><path fill="#0B77E3" fill-rule="nonzero" d="M253 100.301c0-9.586-7.189-17.754-16.934-19.4A2 2 0 0 1 234.4 78.9l.003-.42c0-15.424-13.002-27.958-29.077-27.958-3.618 0-7.141.634-10.443 1.857a2 2 0 0 1-2.442-.904C186.51 40.809 174.955 34 162.137 34c-18.98 0-34.338 14.798-34.338 33.014 0 .797.03 1.59.088 2.38a2 2 0 0 1-1.524 2.09C115.05 74.222 107 84.034 107 95.37c0 13.586 11.468 24.63 25.65 24.63h100.185c11.255-.234 20.165-8.996 20.165-19.699zm-20.023 21.694L132.651 122C117.38 122 105 110.077 105 95.37c0-12.462 8.888-22.925 20.893-25.83a34.231 34.231 0 0 1-.094-2.526C125.8 47.676 142.07 32 162.137 32c13.872 0 25.929 7.49 32.052 18.502a32.028 32.028 0 0 1 11.137-1.981c17.163 0 31.077 13.413 31.077 29.958l-.003.45c10.568 1.785 18.6 10.675 18.6 21.372 0 11.827-9.816 21.443-22.023 21.694z"></path></g></svg>